<svg width="208" height="23" viewBox="0 0 208 23" fill="none" xmlns="http://www.w3.org/2000/svg">
<path d="M28.832 22.384C27.4667 22.384 26.1013 22.128 24.736 21.616C23.392 21.104 22.1867 20.3573 21.12 19.376L23.808 16.144C24.5547 16.784 25.3867 17.3067 26.304 17.712C27.2213 18.1173 28.1067 18.32 28.96 18.32C29.9413 18.32 30.6667 18.1387 31.136 17.776C31.6267 17.4133 31.872 16.9227 31.872 16.304C31.872 15.6427 31.5947 15.1627 31.04 14.864C30.5067 14.544 29.7813 14.192 28.864 13.808L26.144 12.656C25.44 12.3573 24.768 11.9627 24.128 11.472C23.488 10.96 22.9653 10.3307 22.56 9.584C22.1547 8.83733 21.952 7.96267 21.952 6.96C21.952 5.808 22.2613 4.76267 22.88 3.824C23.52 2.88533 24.3947 2.13867 25.504 1.584C26.6347 1.02933 27.9253 0.751999 29.376 0.751999C30.5707 0.751999 31.7653 0.986666 32.96 1.456C34.1547 1.92533 35.2 2.608 36.096 3.504L33.696 6.48C33.0133 5.94667 32.3307 5.54133 31.648 5.264C30.9653 4.96533 30.208 4.816 29.376 4.816C28.5653 4.816 27.9147 4.98667 27.424 5.328C26.9547 5.648 26.72 6.10667 26.72 6.704C26.72 7.344 27.0187 7.824 27.616 8.144C28.2347 8.464 28.992 8.80533 29.888 9.168L32.576 10.256C33.8347 10.768 34.8373 11.472 35.584 12.368C36.3307 13.264 36.704 14.448 36.704 15.92C36.704 17.072 36.3947 18.1387 35.776 19.12C35.1573 20.1013 34.2613 20.8907 33.088 21.488C31.9147 22.0853 30.496 22.384 28.832 22.384Z" fill="#F1F2F3"/>
<path d="M40.4052 22V1.136H45.1092V9.168H52.3092V1.136H57.0452V22H52.3092V13.296H45.1092V22H40.4052Z" fill="#F1F2F3"/>
<path d="M67.0237 11.44L66.5117 13.36H70.9597L70.4797 11.44C70.2024 10.3947 69.9144 9.28533 69.6157 8.112C69.3384 6.93867 69.0611 5.808 68.7837 4.72H68.6557C68.3997 5.82933 68.1331 6.97067 67.8557 8.144C67.5997 9.296 67.3224 10.3947 67.0237 11.44ZM59.4717 22L65.9997 1.136H71.6637L78.1917 22H73.1997L71.9197 17.04H65.5517L64.2717 22H59.4717Z" fill="#F1F2F3"/>
<path d="M80.6315 22V1.136H88.1515C89.6235 1.136 90.9675 1.33867 92.1835 1.744C93.3995 2.128 94.3702 2.78933 95.0955 3.728C95.8208 4.66667 96.1835 5.968 96.1835 7.632C96.1835 9.168 95.8422 10.4373 95.1595 11.44C94.4982 12.4213 93.6022 13.1573 92.4715 13.648L97.2075 22H91.9275L87.9275 14.48H85.3355V22H80.6315ZM85.3355 10.736H87.7675C89.0048 10.736 89.9435 10.48 90.5835 9.968C91.2448 9.43466 91.5755 8.656 91.5755 7.632C91.5755 6.608 91.2448 5.89333 90.5835 5.488C89.9435 5.08267 89.0048 4.88 87.7675 4.88H85.3355V10.736Z" fill="#F1F2F3"/>
<path d="M100.416 22V1.136H105.12V9.68H105.248L111.456 1.136H116.64L110.336 9.456L117.792 22H112.64L107.552 13.2L105.12 16.4V22H100.416Z" fill="#F1F2F3"/>
<path d="M132.943 22.384C131.407 22.384 130.042 22.0853 128.847 21.488C127.652 20.8907 126.639 20.1333 125.807 19.216L126.767 18.192C127.535 19.0453 128.452 19.7387 129.519 20.272C130.586 20.784 131.727 21.04 132.943 21.04C134.564 21.04 135.844 20.6453 136.783 19.856C137.722 19.0667 138.191 18.0533 138.191 16.816C138.191 15.9413 138.02 15.2373 137.679 14.704C137.338 14.1707 136.879 13.7333 136.303 13.392C135.748 13.0293 135.119 12.6987 134.415 12.4L131.215 10.96C130.618 10.6827 129.978 10.3413 129.295 9.936C128.634 9.50933 128.068 8.96533 127.599 8.304C127.151 7.62133 126.927 6.75733 126.927 5.712C126.927 4.688 127.194 3.792 127.727 3.024C128.26 2.23466 128.986 1.62667 129.903 1.2C130.842 0.752 131.898 0.528 133.071 0.528C134.33 0.528 135.46 0.784 136.463 1.296C137.466 1.78667 138.287 2.37333 138.927 3.056L138.095 4.016C137.476 3.376 136.751 2.864 135.919 2.48C135.087 2.07467 134.138 1.872 133.071 1.872C131.684 1.872 130.554 2.21333 129.679 2.896C128.826 3.57867 128.399 4.496 128.399 5.648C128.399 6.45867 128.591 7.12 128.975 7.632C129.38 8.144 129.86 8.56 130.415 8.88C130.991 9.2 131.535 9.47733 132.047 9.712L135.247 11.12C136.036 11.4613 136.762 11.8667 137.423 12.336C138.106 12.784 138.65 13.36 139.055 14.064C139.482 14.7467 139.695 15.632 139.695 16.72C139.695 17.7867 139.418 18.7573 138.863 19.632C138.308 20.4853 137.519 21.1573 136.495 21.648C135.492 22.1387 134.308 22.384 132.943 22.384Z" fill="#F1F2F3"/>
<path d="M144.286 22V0.911999H145.758V22H144.286Z" fill="#F1F2F3"/>
<path d="M159.846 22.384C158.033 22.384 156.443 21.936 155.078 21.04C153.734 20.144 152.678 18.8747 151.91 17.232C151.163 15.5893 150.79 13.648 150.79 11.408C150.79 9.168 151.174 7.23733 151.942 5.616C152.731 3.99467 153.819 2.74667 155.206 1.872C156.614 0.976 158.246 0.528 160.102 0.528C161.531 0.528 162.705 0.805333 163.622 1.36C164.561 1.89333 165.307 2.45867 165.862 3.056L164.998 4.048C164.465 3.45067 163.803 2.93867 163.014 2.512C162.246 2.08533 161.286 1.872 160.134 1.872C158.534 1.872 157.147 2.26667 155.974 3.056C154.801 3.824 153.894 4.92267 153.254 6.352C152.635 7.76 152.326 9.44533 152.326 11.408C152.326 13.3493 152.625 15.0453 153.222 16.496C153.819 17.9467 154.683 19.0667 155.814 19.856C156.966 20.6453 158.342 21.04 159.942 21.04C160.902 21.04 161.798 20.9013 162.63 20.624C163.483 20.3467 164.166 19.952 164.678 19.44V12.88H159.622V11.632H166.086V19.984C165.425 20.688 164.561 21.264 163.494 21.712C162.449 22.16 161.233 22.384 159.846 22.384Z" fill="#F1F2F3"/>
<path d="M171.669 22V0.911999H173.749L178.165 13.296C178.442 14.064 178.72 14.8427 178.997 15.632C179.274 16.4 179.552 17.1787 179.829 17.968H179.957C180.234 17.1787 180.501 16.4 180.757 15.632C181.013 14.8427 181.28 14.064 181.557 13.296L185.941 0.911999H188.053V22H186.613V8.144C186.613 7.26933 186.634 6.32 186.677 5.296C186.72 4.272 186.762 3.32267 186.805 2.448H186.677L185.045 7.152L180.501 19.696H179.221L174.645 7.152L172.981 2.448H172.853C172.896 3.32267 172.938 4.272 172.981 5.296C173.024 6.32 173.045 7.26933 173.045 8.144V22H171.669Z" fill="#F1F2F3"/>
<path d="M197.335 9.584L195.991 13.52H203.479L202.135 9.584C201.708 8.32533 201.303 7.12 200.919 5.968C200.535 4.816 200.161 3.58933 199.799 2.288H199.671C199.308 3.58933 198.935 4.816 198.551 5.968C198.167 7.12 197.761 8.32533 197.335 9.584ZM191.575 22L198.999 0.911999H200.471L207.895 22H206.359L203.895 14.768H195.543L193.047 22H191.575Z" fill="#F1F2F3"/>
<rect width="4.4615" height="13.8394" transform="matrix(-0.770994 -0.636843 0.770994 -0.636843 3.43982 12.6548)" fill="url(#paint0_linear_124_647)"/>
<rect width="4.4615" height="13.8394" transform="matrix(0.770994 0.636843 -0.770994 0.636843 11.4429 11.2052)" fill="url(#paint1_linear_124_647)"/>
<rect width="4.0183" height="15.0894" transform="matrix(0.0140837 -0.999901 0.999954 0.00960956 0.000976562 13.946)" fill="#C4C4C4"/>
<rect width="4.0183" height="15.0894" transform="matrix(0.0140837 -0.999901 0.999954 0.00960956 0.000976562 13.946)" fill="#C4C4C4"/>
<defs>
<linearGradient id="paint0_linear_124_647" x1="2.23075" y1="0" x2="2.23075" y2="13.8394" gradientUnits="userSpaceOnUse">
<stop stop-color="#7962FA"/>
<stop offset="1" stop-color="#C4C4C4" stop-opacity="0"/>
</linearGradient>
<linearGradient id="paint1_linear_124_647" x1="2.23075" y1="0" x2="2.23075" y2="13.8394" gradientUnits="userSpaceOnUse">
<stop stop-color="#C4C4C4"/>
<stop offset="1" stop-color="#C4C4C4" stop-opacity="0"/>
</linearGradient>
</defs>
</svg>
