<svg width="340" height="107" viewBox="0 0 340 107" fill="none" xmlns="http://www.w3.org/2000/svg">
<path d="M56.248 47.576C54.2 47.576 52.152 47.192 50.104 46.424C48.088 45.656 46.28 44.536 44.68 43.064L48.712 38.216C49.832 39.176 51.08 39.96 52.456 40.568C53.832 41.176 55.16 41.48 56.44 41.48C57.912 41.48 59 41.208 59.704 40.664C60.44 40.12 60.808 39.384 60.808 38.456C60.808 37.464 60.392 36.744 59.56 36.296C58.76 35.816 57.672 35.288 56.296 34.712L52.216 32.984C51.16 32.536 50.152 31.944 49.192 31.208C48.232 30.44 47.448 29.496 46.84 28.376C46.232 27.256 45.928 25.944 45.928 24.44C45.928 22.712 46.392 21.144 47.32 19.736C48.28 18.328 49.592 17.208 51.256 16.376C52.952 15.544 54.888 15.128 57.064 15.128C58.856 15.128 60.648 15.48 62.44 16.184C64.232 16.888 65.8 17.912 67.144 19.256L63.544 23.72C62.52 22.92 61.496 22.312 60.472 21.896C59.448 21.448 58.312 21.224 57.064 21.224C55.848 21.224 54.872 21.48 54.136 21.992C53.432 22.472 53.08 23.16 53.08 24.056C53.08 25.016 53.528 25.736 54.424 26.216C55.352 26.696 56.488 27.208 57.832 27.752L61.864 29.384C63.752 30.152 65.256 31.208 66.376 32.552C67.496 33.896 68.056 35.672 68.056 37.88C68.056 39.608 67.592 41.208 66.664 42.68C65.736 44.152 64.392 45.336 62.632 46.232C60.872 47.128 58.744 47.576 56.248 47.576ZM73.6079 47V15.704H80.6639V27.752H91.4639V15.704H98.5679V47H91.4639V33.944H80.6639V47H73.6079ZM113.536 31.16L112.768 34.04H119.44L118.72 31.16C118.304 29.592 117.872 27.928 117.424 26.168C117.008 24.408 116.592 22.712 116.176 21.08H115.984C115.6 22.744 115.2 24.456 114.784 26.216C114.4 27.944 113.984 29.592 113.536 31.16ZM102.208 47L112 15.704H120.496L130.288 47H122.8L120.88 39.56H111.328L109.408 47H102.208ZM133.947 47V15.704H145.227C147.435 15.704 149.451 16.008 151.275 16.616C153.099 17.192 154.555 18.184 155.643 19.592C156.731 21 157.275 22.952 157.275 25.448C157.275 27.752 156.763 29.656 155.739 31.16C154.747 32.632 153.403 33.736 151.707 34.472L158.811 47H150.891L144.891 35.72H141.003V47H133.947ZM141.003 30.104H144.651C146.507 30.104 147.915 29.72 148.875 28.952C149.867 28.152 150.363 26.984 150.363 25.448C150.363 23.912 149.867 22.84 148.875 22.232C147.915 21.624 146.507 21.32 144.651 21.32H141.003V30.104ZM163.625 47V15.704H170.681V28.52H170.873L180.185 15.704H187.961L178.505 28.184L189.689 47H181.961L174.329 33.8L170.681 38.6V47H163.625ZM212.415 47.576C210.111 47.576 208.063 47.128 206.271 46.232C204.479 45.336 202.959 44.2 201.711 42.824L203.151 41.288C204.303 42.568 205.679 43.608 207.279 44.408C208.879 45.176 210.591 45.56 212.415 45.56C214.847 45.56 216.767 44.968 218.175 43.784C219.583 42.6 220.287 41.08 220.287 39.224C220.287 37.912 220.031 36.856 219.519 36.056C219.007 35.256 218.319 34.6 217.455 34.088C216.623 33.544 215.679 33.048 214.623 32.6L209.823 30.44C208.927 30.024 207.967 29.512 206.943 28.904C205.951 28.264 205.103 27.448 204.399 26.456C203.727 25.432 203.391 24.136 203.391 22.568C203.391 21.032 203.791 19.688 204.591 18.536C205.391 17.352 206.479 16.44 207.855 15.8C209.263 15.128 210.847 14.792 212.607 14.792C214.495 14.792 216.191 15.176 217.695 15.944C219.199 16.68 220.431 17.56 221.391 18.584L220.143 20.024C219.215 19.064 218.127 18.296 216.879 17.72C215.631 17.112 214.207 16.808 212.607 16.808C210.527 16.808 208.831 17.32 207.519 18.344C206.239 19.368 205.599 20.744 205.599 22.472C205.599 23.688 205.887 24.68 206.463 25.448C207.071 26.216 207.791 26.84 208.623 27.32C209.487 27.8 210.303 28.216 211.071 28.568L215.871 30.68C217.055 31.192 218.143 31.8 219.135 32.504C220.159 33.176 220.975 34.04 221.583 35.096C222.223 36.12 222.543 37.448 222.543 39.08C222.543 40.68 222.127 42.136 221.295 43.448C220.463 44.728 219.279 45.736 217.743 46.472C216.239 47.208 214.463 47.576 212.415 47.576ZM229.43 47V15.368H231.638V47H229.43ZM252.769 47.576C250.049 47.576 247.665 46.904 245.617 45.56C243.601 44.216 242.017 42.312 240.865 39.848C239.745 37.384 239.185 34.472 239.185 31.112C239.185 27.752 239.761 24.856 240.913 22.424C242.097 19.992 243.729 18.12 245.809 16.808C247.921 15.464 250.369 14.792 253.153 14.792C255.297 14.792 257.057 15.208 258.433 16.04C259.841 16.84 260.961 17.688 261.793 18.584L260.497 20.072C259.697 19.176 258.705 18.408 257.521 17.768C256.369 17.128 254.929 16.808 253.201 16.808C250.801 16.808 248.721 17.4 246.961 18.584C245.201 19.736 243.841 21.384 242.881 23.528C241.953 25.64 241.489 28.168 241.489 31.112C241.489 34.024 241.937 36.568 242.833 38.744C243.729 40.92 245.025 42.6 246.721 43.784C248.449 44.968 250.513 45.56 252.913 45.56C254.353 45.56 255.697 45.352 256.945 44.936C258.225 44.52 259.249 43.928 260.017 43.16V33.32H252.433V31.448H262.129V43.976C261.137 45.032 259.841 45.896 258.241 46.568C256.673 47.24 254.849 47.576 252.769 47.576ZM270.504 47V15.368H273.624L280.248 33.944C280.664 35.096 281.08 36.264 281.496 37.448C281.912 38.6 282.328 39.768 282.744 40.952H282.936C283.352 39.768 283.752 38.6 284.136 37.448C284.52 36.264 284.92 35.096 285.336 33.944L291.912 15.368H295.08V47H292.92V26.216C292.92 24.904 292.952 23.48 293.016 21.944C293.08 20.408 293.144 18.984 293.208 17.672H293.016L290.568 24.728L283.752 43.544H281.832L274.968 24.728L272.472 17.672H272.28C272.344 18.984 272.408 20.408 272.472 21.944C272.536 23.48 272.568 24.904 272.568 26.216V47H270.504ZM309.002 28.376L306.986 34.28H318.218L316.202 28.376C315.562 26.488 314.954 24.68 314.378 22.952C313.802 21.224 313.242 19.384 312.698 17.432H312.506C311.962 19.384 311.402 21.224 310.826 22.952C310.25 24.68 309.642 26.488 309.002 28.376ZM300.362 47L311.498 15.368H313.706L324.842 47H322.538L318.842 36.152H306.314L302.57 47H300.362Z" fill="#F1F2F3"/>
<line y1="66.6" x2="340" y2="66.6" stroke="#B5B5BA" stroke-width="0.8"/>
<path d="M50.328 101V85.184H58.992V86.144H51.432V92.12H57.768V93.08H51.432V100.04H59.232V101H50.328ZM62.7996 101V85.184H63.9516L70.6236 96.344L72.3996 99.488H72.4956C72.4796 98.72 72.4476 97.952 72.3996 97.184C72.3676 96.416 72.3516 95.648 72.3516 94.88V85.184H73.4076V101H72.2556L65.5836 89.84L63.8076 86.696H63.7116C63.7436 87.448 63.7756 88.192 63.8076 88.928C63.8396 89.664 63.8556 90.416 63.8556 91.184V101H62.7996ZM78.1774 101V85.184H79.2814V92.12H87.7534V85.184H88.8574V101H87.7534V93.08H79.2814V101H78.1774ZM95.8095 91.688L94.8015 94.64H100.418L99.4095 91.688C99.0895 90.744 98.7855 89.84 98.4975 88.976C98.2095 88.112 97.9295 87.192 97.6575 86.216H97.5615C97.2895 87.192 97.0095 88.112 96.7215 88.976C96.4335 89.84 96.1295 90.744 95.8095 91.688ZM91.4895 101L97.0575 85.184H98.1615L103.73 101H102.578L100.73 95.576H94.4655L92.5935 101H91.4895ZM106.378 101V85.184H107.53L114.202 96.344L115.978 99.488H116.074C116.058 98.72 116.026 97.952 115.978 97.184C115.946 96.416 115.93 95.648 115.93 94.88V85.184H116.986V101H115.834L109.162 89.84L107.386 86.696H107.29C107.322 87.448 107.354 88.192 107.386 88.928C107.418 89.664 107.434 90.416 107.434 91.184V101H106.378ZM127.372 101.288C126.076 101.288 124.924 100.952 123.916 100.28C122.924 99.608 122.148 98.656 121.588 97.424C121.028 96.192 120.748 94.736 120.748 93.056C120.748 91.376 121.028 89.928 121.588 88.712C122.164 87.496 122.956 86.56 123.964 85.904C124.972 85.232 126.148 84.896 127.492 84.896C128.42 84.896 129.236 85.088 129.94 85.472C130.644 85.856 131.204 86.296 131.62 86.792L130.972 87.536C130.54 87.04 130.036 86.648 129.46 86.36C128.884 86.056 128.236 85.904 127.516 85.904C126.364 85.904 125.364 86.2 124.516 86.792C123.684 87.368 123.036 88.192 122.572 89.264C122.124 90.32 121.9 91.584 121.9 93.056C121.9 94.512 122.124 95.784 122.572 96.872C123.02 97.96 123.652 98.8 124.468 99.392C125.3 99.984 126.284 100.28 127.42 100.28C128.236 100.28 128.964 100.12 129.604 99.8C130.244 99.464 130.852 98.976 131.428 98.336L132.076 99.032C131.468 99.72 130.788 100.272 130.036 100.688C129.284 101.088 128.396 101.288 127.372 101.288ZM135.423 101V85.184H144.087V86.144H136.527V92.12H142.863V93.08H136.527V100.04H144.327V101H135.423ZM155.291 101V94.592L150.563 85.184H151.739L154.139 90.128C154.411 90.704 154.683 91.272 154.955 91.832C155.227 92.392 155.515 92.968 155.819 93.56H155.915C156.219 92.968 156.515 92.392 156.803 91.832C157.091 91.272 157.363 90.704 157.619 90.128L160.019 85.184H161.147L156.395 94.592V101H155.291ZM168.912 101.288C167.648 101.288 166.528 100.952 165.552 100.28C164.576 99.592 163.808 98.632 163.248 97.4C162.688 96.168 162.408 94.712 162.408 93.032C162.408 91.368 162.688 89.928 163.248 88.712C163.808 87.496 164.576 86.56 165.552 85.904C166.528 85.232 167.648 84.896 168.912 84.896C170.192 84.896 171.32 85.232 172.296 85.904C173.272 86.56 174.04 87.496 174.6 88.712C175.16 89.928 175.44 91.368 175.44 93.032C175.44 94.712 175.16 96.168 174.6 97.4C174.04 98.632 173.272 99.592 172.296 100.28C171.32 100.952 170.192 101.288 168.912 101.288ZM168.912 100.28C169.984 100.28 170.92 99.984 171.72 99.392C172.52 98.784 173.144 97.936 173.592 96.848C174.04 95.76 174.264 94.488 174.264 93.032C174.264 91.576 174.04 90.32 173.592 89.264C173.144 88.192 172.52 87.368 171.72 86.792C170.92 86.2 169.984 85.904 168.912 85.904C167.84 85.904 166.904 86.2 166.104 86.792C165.304 87.368 164.68 88.192 164.232 89.264C163.784 90.32 163.56 91.576 163.56 93.032C163.56 94.488 163.784 95.76 164.232 96.848C164.68 97.936 165.304 98.784 166.104 99.392C166.904 99.984 167.84 100.28 168.912 100.28ZM184.448 101.288C183.776 101.288 183.12 101.192 182.48 101C181.856 100.792 181.288 100.448 180.776 99.968C180.28 99.488 179.88 98.84 179.576 98.024C179.288 97.192 179.144 96.16 179.144 94.928V85.184H180.248V94.808C180.248 96.2 180.44 97.296 180.824 98.096C181.224 98.896 181.744 99.464 182.384 99.8C183.024 100.12 183.712 100.28 184.448 100.28C185.216 100.28 185.928 100.12 186.584 99.8C187.24 99.464 187.768 98.896 188.168 98.096C188.568 97.296 188.768 96.2 188.768 94.808V85.184H189.8V94.928C189.8 96.16 189.648 97.192 189.344 98.024C189.056 98.84 188.656 99.488 188.144 99.968C187.648 100.448 187.08 100.792 186.44 101C185.8 101.192 185.136 101.288 184.448 101.288ZM194.523 101V85.184H199.059C200.627 85.184 201.883 85.504 202.827 86.144C203.771 86.768 204.243 87.84 204.243 89.36C204.243 90.624 203.875 91.616 203.139 92.336C202.419 93.056 201.435 93.496 200.187 93.656L204.555 101H203.283L198.987 93.728H195.627V101H194.523ZM195.627 92.816H198.771C200.163 92.816 201.235 92.536 201.987 91.976C202.739 91.4 203.115 90.528 203.115 89.36C203.115 88.176 202.739 87.344 201.987 86.864C201.235 86.368 200.163 86.12 198.771 86.12H195.627V92.816ZM214.806 91.688L213.798 94.64H219.414L218.406 91.688C218.086 90.744 217.782 89.84 217.494 88.976C217.206 88.112 216.926 87.192 216.654 86.216H216.558C216.286 87.192 216.006 88.112 215.718 88.976C215.43 89.84 215.126 90.744 214.806 91.688ZM210.486 101L216.054 85.184H217.158L222.726 101H221.574L219.726 95.576H213.462L211.59 101H210.486ZM225.375 101V85.184H226.479V100.04H233.775V101H225.375ZM236.698 101V85.184H240.682C242.474 85.184 243.874 85.512 244.882 86.168C245.906 86.824 246.418 87.968 246.418 89.6C246.418 91.152 245.914 92.312 244.906 93.08C243.914 93.832 242.538 94.208 240.778 94.208H237.802V101H236.698ZM237.802 93.272H240.514C242.13 93.272 243.33 92.984 244.114 92.408C244.898 91.832 245.29 90.896 245.29 89.6C245.29 88.272 244.882 87.36 244.066 86.864C243.266 86.368 242.05 86.12 240.418 86.12H237.802V93.272ZM249.99 101V85.184H251.094V92.12H259.566V85.184H260.67V101H259.566V93.08H251.094V101H249.99ZM267.622 91.688L266.614 94.64H272.23L271.222 91.688C270.902 90.744 270.598 89.84 270.31 88.976C270.022 88.112 269.742 87.192 269.47 86.216H269.374C269.102 87.192 268.822 88.112 268.534 88.976C268.246 89.84 267.942 90.744 267.622 91.688ZM263.302 101L268.87 85.184H269.974L275.542 101H274.39L272.542 95.576H266.278L264.406 101H263.302Z" fill="#F1F2F3"/>
<rect width="8.12387" height="25.1999" transform="matrix(-0.754781 -0.655977 0.754781 -0.655977 10.1323 33.8591)" fill="url(#paint0_linear_1093_3551)"/>
<rect width="8.12387" height="25.1999" transform="matrix(0.754781 0.655977 -0.754781 0.655977 24.3984 31.1404)" fill="url(#paint1_linear_1093_3551)"/>
<rect width="7.53661" height="26.8984" transform="matrix(0.0133855 -0.99991 0.999949 0.0101108 4.0022 36.281)" fill="#C4C4C4"/>
<rect width="7.53661" height="26.8984" transform="matrix(0.0133855 -0.99991 0.999949 0.0101108 4.0022 36.281)" fill="#C4C4C4"/>
<defs>
<linearGradient id="paint0_linear_1093_3551" x1="4.06194" y1="0" x2="4.06194" y2="25.1999" gradientUnits="userSpaceOnUse">
<stop stop-color="#7962FA"/>
<stop offset="1" stop-color="#C4C4C4" stop-opacity="0"/>
</linearGradient>
<linearGradient id="paint1_linear_1093_3551" x1="4.06194" y1="0" x2="4.06194" y2="25.1999" gradientUnits="userSpaceOnUse">
<stop stop-color="#C4C4C4"/>
<stop offset="1" stop-color="#C4C4C4" stop-opacity="0"/>
</linearGradient>
</defs>
</svg>
