<svg width="21" height="20" viewBox="0 0 21 20" fill="none" xmlns="http://www.w3.org/2000/svg">
<path d="M10.5811 0C5.08105 0 0.581055 4.5 0.581055 10C0.581055 15.5 5.08105 20 10.5811 20C16.0811 20 20.5811 15.5 20.5811 10C20.5811 4.5 16.0811 0 10.5811 0ZM2.58105 10C2.58105 5.6 6.18105 2 10.5811 2C12.3811 2 14.0811 2.6 15.4811 3.7L4.28105 14.9C3.18105 13.5 2.58105 11.8 2.58105 10ZM10.5811 18C8.78105 18 7.08105 17.4 5.68105 16.3L16.8811 5.1C17.9811 6.5 18.5811 8.2 18.5811 10C18.5811 14.4 14.9811 18 10.5811 18Z" fill="#EF4E4E"/>
</svg>
