<svg width="21" height="22" viewBox="0 0 21 22" fill="none" xmlns="http://www.w3.org/2000/svg">
<path d="M5.91895 7.5V18.7C5.91895 19.2799 6.36666 19.75 6.91895 19.75H14.9189C15.4712 19.75 15.9189 19.2799 15.9189 18.7V7.5H5.91895Z" fill="#F2F2F3"/>
<path fill-rule="evenodd" clip-rule="evenodd" d="M12.5859 4.4375V3.825C12.5859 3.4384 12.2875 3.125 11.9193 3.125H9.91927C9.55107 3.125 9.2526 3.4384 9.2526 3.825V4.4375H5.41927C5.23518 4.4375 5.08594 4.5942 5.08594 4.7875V5.4C5.08594 5.5933 5.23518 5.75 5.41927 5.75H16.4193C16.6033 5.75 16.7526 5.5933 16.7526 5.4V4.7875C16.7526 4.5942 16.6033 4.4375 16.4193 4.4375H12.5859Z" fill="#F2F2F3"/>
</svg>
