<svg width="17" height="16" viewBox="0 0 17 16" fill="none" xmlns="http://www.w3.org/2000/svg">
<path d="M1.80038 16C1.67858 15.9998 1.55815 15.9742 1.44675 15.9249C1.33536 15.8756 1.23543 15.8037 1.15334 15.7137C1.06975 15.6245 1.00597 15.5186 0.966181 15.4029C0.926388 15.2873 0.91148 15.1646 0.922434 15.0428L1.13753 12.6769L11.0742 2.74108L14.1795 5.84636L4.24548 15.7813L1.88028 15.9965C1.85372 15.9989 1.82706 16.0001 1.80038 16ZM14.7993 5.22548L11.6949 2.1202L13.557 0.257561C13.6386 0.175911 13.7354 0.111136 13.842 0.0669417C13.9485 0.0227475 14.0628 0 14.1782 0C14.2935 0 14.4078 0.0227475 14.5144 0.0669417C14.621 0.111136 14.7178 0.175911 14.7993 0.257561L16.6615 2.1202C16.7431 2.20176 16.8078 2.29862 16.852 2.40523C16.8962 2.51184 16.9189 2.62611 16.9189 2.74152C16.9189 2.85693 16.8962 2.9712 16.852 3.07782C16.8078 3.18443 16.7431 3.28128 16.6615 3.36284L14.8002 5.2246L14.7993 5.22548Z" fill="#F1F2F3"/>
</svg>
