<svg width="18" height="17" viewBox="0 0 18 17" fill="none" xmlns="http://www.w3.org/2000/svg">
<path d="M13.5 14.4994H1.8V5.49939H4.1355C4.1355 5.49939 4.7556 4.60339 6.0885 3.49939H0.9C0.661305 3.49939 0.432387 3.60475 0.263604 3.79228C0.0948212 3.97982 0 4.23417 0 4.49939L0 15.4994C0 15.7646 0.0948212 16.019 0.263604 16.2065C0.432387 16.394 0.661305 16.4994 0.9 16.4994H14.4C14.6387 16.4994 14.8676 16.394 15.0364 16.2065C15.2052 16.019 15.3 15.7646 15.3 15.4994V11.7534L13.5 13.3984V14.4994ZM12.0249 7.54939V11.1004L18 5.89939L12.0249 0.900391V4.03139C4.77 4.03139 4.77 11.9994 4.77 11.9994C6.8238 8.25139 8.0874 7.54939 12.0249 7.54939Z" fill="#F2F2F3"/>
</svg>
