<svg width="21" height="14" viewBox="0 0 21 14" fill="none" xmlns="http://www.w3.org/2000/svg">
<path d="M2.10084 8.37292C2.00758 8.62752 1.81872 8.83572 1.5744 8.95329C1.33007 9.07086 1.04953 9.08853 0.792381 9.00254C0.535234 8.91656 0.321748 8.73369 0.197285 8.4928C0.0728219 8.25191 0.0471911 7.97199 0.125838 7.7125C0.105005 7.775 0.125838 7.71042 0.125838 7.71042C0.162884 7.59571 0.206001 7.48305 0.255005 7.37292C0.338338 7.175 0.461255 6.90208 0.630005 6.57917C0.973755 5.93333 1.50917 5.07292 2.29875 4.2125C3.8925 2.47292 6.50292 0.75 10.4883 0.75C14.4738 0.75 17.0842 2.47292 18.6779 4.2125C19.5286 5.14578 20.2185 6.21376 20.7196 7.37292L20.8154 7.60833C20.8217 7.625 20.8425 7.73333 20.8633 7.8375L20.905 8.04167C20.905 8.04167 21.08 8.73542 20.1925 9.02917C19.9311 9.11645 19.6458 9.09662 19.3991 8.97401C19.1523 8.8514 18.9642 8.63602 18.8758 8.375V8.36875L18.8633 8.33542C18.7587 8.06779 18.639 7.80627 18.505 7.55208C18.1346 6.85316 17.6767 6.2042 17.1425 5.62083C15.8717 4.23542 13.7946 2.83333 10.4883 2.83333C7.18209 2.83333 5.105 4.23542 3.83417 5.62083C3.14613 6.37514 2.5866 7.23731 2.17792 8.17292C2.15607 8.22668 2.13523 8.28086 2.11542 8.33542L2.10084 8.37292V8.37292ZM6.32167 9.08333C6.32167 7.97826 6.76066 6.91846 7.54206 6.13705C8.32346 5.35565 9.38327 4.91667 10.4883 4.91667C11.5934 4.91667 12.6532 5.35565 13.4346 6.13705C14.216 6.91846 14.655 7.97826 14.655 9.08333C14.655 10.1884 14.216 11.2482 13.4346 12.0296C12.6532 12.811 11.5934 13.25 10.4883 13.25C9.38327 13.25 8.32346 12.811 7.54206 12.0296C6.76066 11.2482 6.32167 10.1884 6.32167 9.08333V9.08333Z" fill="#F2F2F3"/>
</svg>
