<svg width="71" height="62" viewBox="0 0 71 62" fill="none" xmlns="http://www.w3.org/2000/svg">
<path d="M30.5 5L48.2535 35H12.7465L30.5 5Z" fill="url(#paint0_linear_1120_3808)" fill-opacity="0.5"/>
<path d="M50.9849 8.21321C54.8926 12.1209 57.5538 17.0996 58.6319 22.5197C59.71 27.9398 59.1567 33.5579 57.0419 38.6636C54.927 43.7692 51.3457 48.1331 46.7507 51.2033C42.1558 54.2736 36.7536 55.9123 31.2273 55.9123L31.2273 27.9708L50.9849 8.21321Z" fill="url(#paint1_linear_1120_3808)"/>
<path d="M28 56C22.4621 56 17.0486 54.3578 12.444 51.2811C7.83946 48.2045 4.25063 43.8315 2.13137 38.7151C0.0121187 33.5988 -0.542374 27.9689 0.538013 22.5375C1.6184 17.106 4.28514 12.1169 8.20101 8.20101L28 28L28 56Z" fill="url(#paint2_linear_1120_3808)"/>
<defs>
<linearGradient id="paint0_linear_1120_3808" x1="30.5" y1="5" x2="30.5423" y2="36.8602" gradientUnits="userSpaceOnUse">
<stop stop-color="#9A8EE0"/>
<stop offset="1" stop-color="#9A8EE0" stop-opacity="0"/>
</linearGradient>
<linearGradient id="paint1_linear_1120_3808" x1="11.4697" y1="47.7283" x2="50.9849" y2="8.21309" gradientUnits="userSpaceOnUse">
<stop stop-color="#B2A6F7" stop-opacity="0.8"/>
<stop offset="1" stop-color="#B2A6F7"/>
</linearGradient>
<linearGradient id="paint2_linear_1120_3808" x1="28" y1="0" x2="28" y2="56" gradientUnits="userSpaceOnUse">
<stop stop-color="#7164FC"/>
<stop offset="1" stop-color="#7962FA" stop-opacity="0.83"/>
</linearGradient>
</defs>
</svg>
