<svg width="23" height="23" viewBox="0 0 23 23" fill="none" xmlns="http://www.w3.org/2000/svg">
<path d="M9.00141 22.4657L14.1561 13.641L18.2173 20.5946C16.2622 21.9897 13.9113 22.7388 11.5 22.7351C10.6422 22.7351 9.80629 22.6419 9.00141 22.4657ZM6.77419 21.7347C5.29688 21.0744 3.97704 20.1135 2.9008 18.9148C1.82457 17.716 1.01614 16.3063 0.528292 14.7778H10.8365L6.77419 21.7336V21.7347ZM0.0591599 12.5043C-0.105388 10.9097 0.0742688 9.29877 0.586254 7.77794C1.09824 6.2571 1.93089 4.86102 3.02918 3.68195L8.17928 12.5043H0.0591599ZM4.78382 2.14052C6.73868 0.745587 9.08913 -0.00352254 11.5 1.24537e-05C12.3578 1.24537e-05 13.1937 0.0932261 13.9986 0.269423L8.84388 9.09403L4.78382 2.14052ZM16.2258 1.00035C17.7031 1.66068 19.023 2.62157 20.0992 3.82032C21.1754 5.01907 21.9839 6.42873 22.4717 7.95728H12.1635L16.2258 1.00149V1.00035ZM22.9408 10.2308C23.1054 11.8254 22.9257 13.4363 22.4137 14.9571C21.9018 16.478 21.0691 17.8741 19.9708 19.0531L14.8207 10.2308H22.9431H22.9408Z" fill="#C7C8CC"/>
</svg>
