<svg width="23" height="23" viewBox="0 0 23 23" fill="none" xmlns="http://www.w3.org/2000/svg">
<path d="M0 20.4444H23V23H0V20.4444ZM3.83333 16.6111C5.23889 16.6111 6.38889 15.4611 6.38889 14.0556C6.38889 13.4167 6.13333 12.7778 5.75 12.3944L7.41111 8.94444H7.66667C8.30556 8.94444 8.94444 8.68889 9.32778 8.30556L12.7778 10.0944V10.2222C12.7778 11.6278 13.9278 12.7778 15.3333 12.7778C16.7389 12.7778 17.8889 11.6278 17.8889 10.2222C17.8889 9.58333 17.6333 9.07222 17.25 8.56111L18.9111 5.11111H19.1667C20.5722 5.11111 21.7222 3.96111 21.7222 2.55556C21.7222 1.15 20.5722 0 19.1667 0C17.7611 0 16.6111 1.15 16.6111 2.55556C16.6111 3.19444 16.8667 3.83333 17.25 4.21667L15.5889 7.66667H15.3333C14.6944 7.66667 14.0556 7.92222 13.6722 8.30556L10.2222 6.64444V6.38889C10.2222 4.98333 9.07222 3.83333 7.66667 3.83333C6.26111 3.83333 5.11111 4.98333 5.11111 6.38889C5.11111 7.02778 5.36667 7.66667 5.75 8.05L4.08889 11.5H3.83333C2.42778 11.5 1.27778 12.65 1.27778 14.0556C1.27778 15.4611 2.42778 16.6111 3.83333 16.6111Z" fill="#C7C8CC"/>
</svg>
