<svg width="29" height="29" viewBox="0 0 29 29" fill="none" xmlns="http://www.w3.org/2000/svg">
<path d="M14.5 0C6.496 0 0 6.34667 0 14.1667C0 21.9867 6.496 28.3333 14.5 28.3333C22.504 28.3333 29 21.9867 29 14.1667C29 6.34667 22.504 0 14.5 0ZM14.5 23.375C13.2965 23.375 12.325 22.4258 12.325 21.25H16.675C16.675 22.4258 15.7035 23.375 14.5 23.375ZM21.75 19.8333H7.25V18.4167L8.7 17V13.3025C8.7 10.2992 10.1935 7.74917 13.05 7.08333V6.375C13.05 5.5675 13.6735 4.95833 14.5 4.95833C15.3265 4.95833 15.95 5.5675 15.95 6.375V7.08333C18.8065 7.74917 20.3 10.3133 20.3 13.3025V17L21.75 18.4167V19.8333Z" fill="#F1F2F3"/>
</svg>
