<svg width="19" height="18" viewBox="0 0 19 18" fill="none" xmlns="http://www.w3.org/2000/svg">
<path d="M8.08105 10V0H10.0811V10H8.08105ZM9.08105 18C7.84772 18 6.68505 17.7627 5.59305 17.288C4.50172 16.8127 3.54772 16.1667 2.73105 15.35C1.91439 14.5333 1.26839 13.5793 0.793055 12.488C0.318388 11.396 0.0810547 10.2333 0.0810547 9C0.0810547 7.66667 0.356055 6.40833 0.906055 5.225C1.45605 4.04167 2.23105 3.01667 3.23105 2.15L4.68105 3.6C3.84772 4.23333 3.20605 5.025 2.75605 5.975C2.30605 6.925 2.08105 7.93333 2.08105 9C2.08105 10.9333 2.76439 12.5833 4.13105 13.95C5.49772 15.3167 7.14772 16 9.08105 16C11.0311 16 12.6851 15.3167 14.0431 13.95C15.4017 12.5833 16.0811 10.9333 16.0811 9C16.0811 7.93333 15.8601 6.925 15.4181 5.975C14.9767 5.025 14.3311 4.23333 13.4811 3.6L14.9311 2.15C15.9311 3.01667 16.7061 4.04167 17.2561 5.225C17.8061 6.40833 18.0811 7.66667 18.0811 9C18.0811 10.2333 17.8437 11.396 17.3691 12.488C16.8937 13.5793 16.2521 14.5333 15.4441 15.35C14.6354 16.1667 13.6854 16.8127 12.5941 17.288C11.5021 17.7627 10.3311 18 9.08105 18Z" fill="#F2F2F3"/>
</svg>
