<svg width="10" height="11" viewBox="0 0 10 11" fill="none" xmlns="http://www.w3.org/2000/svg">
<path d="M8.93127 8.35699C8.68554 8.12164 8.44638 7.87953 8.21406 7.63094C8.01889 7.43264 7.90136 7.28837 7.90136 7.28837L6.43232 6.58698C7.02046 5.92002 7.34505 5.06143 7.34523 4.17223C7.34523 2.14778 5.6978 0.5 3.67261 0.5C1.64743 0.5 0 2.14778 0 4.17223C0 6.19667 1.64743 7.84445 3.67261 7.84445C4.59759 7.84445 5.44071 7.49822 6.08762 6.93217L6.78909 8.40106C6.78909 8.40106 6.93337 8.51857 7.13169 8.71372C7.33473 8.90415 7.60178 9.16174 7.85782 9.43086L8.5703 10.1611L8.8872 10.5L10 9.38731L9.66107 9.07045C9.46222 8.8753 9.19675 8.61615 8.93127 8.35699ZM3.67261 6.79525C2.22613 6.79525 1.04932 5.61856 1.04932 4.17223C1.04932 2.72589 2.22613 1.54921 3.67261 1.54921C5.1191 1.54921 6.29591 2.72589 6.29591 4.17223C6.29591 5.61856 5.1191 6.79525 3.67261 6.79525Z" fill="#F2F2F3"/>
</svg>
