<svg width="141" height="18" viewBox="0 0 141 18" fill="none" xmlns="http://www.w3.org/2000/svg">
<path d="M6.624 17.288C5.6 17.288 4.576 17.096 3.552 16.712C2.544 16.328 1.64 15.768 0.84 15.032L2.856 12.608C3.416 13.088 4.04 13.48 4.728 13.784C5.416 14.088 6.08 14.24 6.72 14.24C7.456 14.24 8 14.104 8.352 13.832C8.72 13.56 8.904 13.192 8.904 12.728C8.904 12.232 8.696 11.872 8.28 11.648C7.88 11.408 7.336 11.144 6.648 10.856L4.608 9.992C4.08 9.768 3.576 9.472 3.096 9.104C2.616 8.72 2.224 8.248 1.92 7.688C1.616 7.128 1.464 6.472 1.464 5.72C1.464 4.856 1.696 4.072 2.16 3.368C2.64 2.664 3.296 2.104 4.128 1.688C4.976 1.272 5.944 1.064 7.032 1.064C7.928 1.064 8.824 1.24 9.72 1.592C10.616 1.944 11.4 2.456 12.072 3.128L10.272 5.36C9.76 4.96 9.248 4.656 8.736 4.448C8.224 4.224 7.656 4.112 7.032 4.112C6.424 4.112 5.936 4.24 5.568 4.496C5.216 4.736 5.04 5.08 5.04 5.528C5.04 6.008 5.264 6.368 5.712 6.608C6.176 6.848 6.744 7.104 7.416 7.376L9.432 8.192C10.376 8.576 11.128 9.104 11.688 9.776C12.248 10.448 12.528 11.336 12.528 12.44C12.528 13.304 12.296 14.104 11.832 14.84C11.368 15.576 10.696 16.168 9.816 16.616C8.936 17.064 7.872 17.288 6.624 17.288ZM15.3039 17V1.352H18.8319V7.376H24.2319V1.352H27.7839V17H24.2319V10.472H18.8319V17H15.3039ZM35.2678 9.08L34.8838 10.52H38.2198L37.8598 9.08C37.6518 8.296 37.4358 7.464 37.2118 6.584C37.0038 5.704 36.7958 4.856 36.5878 4.04H36.4918C36.2998 4.872 36.0998 5.728 35.8918 6.608C35.6998 7.472 35.4918 8.296 35.2678 9.08ZM29.6038 17L34.4998 1.352H38.7478L43.6438 17H39.8998L38.9398 13.28H34.1638L33.2038 17H29.6038ZM45.4736 17V1.352H51.1136C52.2176 1.352 53.2256 1.504 54.1376 1.808C55.0496 2.096 55.7776 2.592 56.3216 3.296C56.8656 4 57.1376 4.976 57.1376 6.224C57.1376 7.376 56.8816 8.328 56.3696 9.08C55.8736 9.816 55.2016 10.368 54.3536 10.736L57.9056 17H53.9456L50.9456 11.36H49.0016V17H45.4736ZM49.0016 8.552H50.8256C51.7536 8.552 52.4576 8.36 52.9376 7.976C53.4336 7.576 53.6816 6.992 53.6816 6.224C53.6816 5.456 53.4336 4.92 52.9376 4.616C52.4576 4.312 51.7536 4.16 50.8256 4.16H49.0016V8.552ZM60.3124 17V1.352H63.8404V7.76H63.9364L68.5924 1.352H72.4804L67.7524 7.592L73.3444 17H69.4804L65.6644 10.4L63.8404 12.8V17H60.3124ZM84.7073 17.288C83.5553 17.288 82.5313 17.064 81.6353 16.616C80.7393 16.168 79.9793 15.6 79.3553 14.912L80.0753 14.144C80.6513 14.784 81.3393 15.304 82.1393 15.704C82.9393 16.088 83.7953 16.28 84.7073 16.28C85.9233 16.28 86.8833 15.984 87.5873 15.392C88.2913 14.8 88.6433 14.04 88.6433 13.112C88.6433 12.456 88.5153 11.928 88.2593 11.528C88.0033 11.128 87.6593 10.8 87.2273 10.544C86.8113 10.272 86.3393 10.024 85.8113 9.8L83.4113 8.72C82.9633 8.512 82.4833 8.256 81.9713 7.952C81.4753 7.632 81.0513 7.224 80.6993 6.728C80.3633 6.216 80.1953 5.568 80.1953 4.784C80.1953 4.016 80.3953 3.344 80.7953 2.768C81.1953 2.176 81.7393 1.72 82.4273 1.4C83.1313 1.064 83.9233 0.896 84.8033 0.896C85.7473 0.896 86.5953 1.088 87.3473 1.472C88.0993 1.84 88.7153 2.28 89.1953 2.792L88.5713 3.512C88.1073 3.032 87.5633 2.648 86.9393 2.36C86.3153 2.056 85.6033 1.904 84.8033 1.904C83.7633 1.904 82.9153 2.16 82.2593 2.672C81.6193 3.184 81.2993 3.872 81.2993 4.736C81.2993 5.344 81.4433 5.84 81.7313 6.224C82.0353 6.608 82.3953 6.92 82.8113 7.16C83.2433 7.4 83.6513 7.608 84.0353 7.784L86.4353 8.84C87.0273 9.096 87.5713 9.4 88.0673 9.752C88.5793 10.088 88.9873 10.52 89.2913 11.048C89.6113 11.56 89.7713 12.224 89.7713 13.04C89.7713 13.84 89.5633 14.568 89.1473 15.224C88.7313 15.864 88.1393 16.368 87.3713 16.736C86.6193 17.104 85.7313 17.288 84.7073 17.288ZM93.2149 17V1.184H94.3189V17H93.2149ZM104.884 17.288C103.524 17.288 102.332 16.952 101.308 16.28C100.3 15.608 99.5085 14.656 98.9325 13.424C98.3725 12.192 98.0925 10.736 98.0925 9.056C98.0925 7.376 98.3805 5.928 98.9565 4.712C99.5485 3.496 100.364 2.56 101.404 1.904C102.46 1.232 103.684 0.896 105.076 0.896C106.148 0.896 107.028 1.104 107.716 1.52C108.42 1.92 108.98 2.344 109.396 2.792L108.748 3.536C108.348 3.088 107.852 2.704 107.26 2.384C106.684 2.064 105.964 1.904 105.1 1.904C103.9 1.904 102.86 2.2 101.98 2.792C101.1 3.368 100.42 4.192 99.9405 5.264C99.4765 6.32 99.2445 7.584 99.2445 9.056C99.2445 10.512 99.4685 11.784 99.9165 12.872C100.364 13.96 101.012 14.8 101.86 15.392C102.724 15.984 103.756 16.28 104.956 16.28C105.676 16.28 106.348 16.176 106.972 15.968C107.612 15.76 108.124 15.464 108.508 15.08V10.16H104.716V9.224H109.565V15.488C109.069 16.016 108.42 16.448 107.62 16.784C106.836 17.12 105.924 17.288 104.884 17.288ZM113.752 17V1.184H115.312L118.624 10.472C118.832 11.048 119.04 11.632 119.248 12.224C119.456 12.8 119.664 13.384 119.872 13.976H119.968C120.176 13.384 120.376 12.8 120.568 12.224C120.76 11.632 120.96 11.048 121.168 10.472L124.456 1.184H126.04V17H124.96V6.608C124.96 5.952 124.976 5.24 125.008 4.472C125.04 3.704 125.072 2.992 125.104 2.336H125.008L123.784 5.864L120.376 15.272H119.416L115.984 5.864L114.736 2.336H114.64C114.672 2.992 114.704 3.704 114.736 4.472C114.768 5.24 114.784 5.952 114.784 6.608V17H113.752ZM133.001 7.688L131.993 10.64H137.609L136.601 7.688C136.281 6.744 135.977 5.84 135.689 4.976C135.401 4.112 135.121 3.192 134.849 2.216H134.753C134.481 3.192 134.201 4.112 133.913 4.976C133.625 5.84 133.321 6.744 133.001 7.688ZM128.681 17L134.249 1.184H135.353L140.921 17H139.769L137.921 11.576H131.657L129.785 17H128.681Z" fill="#F1F2F3"/>
</svg>
