<svg width="30" height="30" viewBox="0 0 30 30" fill="none" xmlns="http://www.w3.org/2000/svg">
<path d="M7.5 10V26C7.5 26.8284 8.17157 27.5 9 27.5H21C21.8284 27.5 22.5 26.8284 22.5 26V10H7.5Z" fill="#CFCFCF"/>
<path fill-rule="evenodd" clip-rule="evenodd" d="M17.5 5.625V4.75C17.5 4.19772 17.0523 3.75 16.5 3.75H13.5C12.9477 3.75 12.5 4.19772 12.5 4.75V5.625H6.75C6.47386 5.625 6.25 5.84886 6.25 6.125V7C6.25 7.27614 6.47386 7.5 6.75 7.5H23.25C23.5261 7.5 23.75 7.27614 23.75 7V6.125C23.75 5.84886 23.5261 5.625 23.25 5.625H17.5Z" fill="#CFCFCF"/>
</svg>
