<svg width="30" height="30" viewBox="0 0 30 30" fill="none" xmlns="http://www.w3.org/2000/svg">
<path d="M27.4199 6.51021C27.9973 7.08762 28.0067 8.02082 27.4411 8.60981L16.0175 20.5063C15.7422 20.793 15.3644 20.9587 14.967 20.967L10.1578 21.0679L10.259 16.2435C10.2671 15.8551 10.4256 15.4851 10.701 15.2112L22.3867 3.59232C22.973 3.0094 23.9204 3.01075 24.505 3.59535L27.4199 6.51021Z" fill="#CFCFCF"/>
<path d="M16.125 2.5C16.8154 2.5 17.375 3.05964 17.375 3.75C17.375 4.44036 16.8154 5 16.125 5H7.5C6.11929 5 5 6.11929 5 7.5V22.5C5 23.8807 6.11929 25 7.5 25H22.5C23.8807 25 25 23.8807 25 22.5V16.25C25 15.5596 25.5596 15 26.25 15C26.9404 15 27.5 15.5596 27.5 16.25V22.5C27.5 25.2614 25.2614 27.5 22.5 27.5H7.5C4.73858 27.5 2.5 25.2614 2.5 22.5V7.5C2.5 4.73858 4.73858 2.5 7.5 2.5H16.125Z" fill="#CFCFCF"/>
</svg>
