<svg width="30" height="30" viewBox="0 0 30 30" fill="none" xmlns="http://www.w3.org/2000/svg">
<g opacity="0.4">
<path d="M13.8 21.6C9.48 21.6 6 18.12 6 13.8C6 9.48 9.48 6 13.8 6C18.12 6 21.6 9.48 21.6 13.8C21.6 18.12 18.12 21.6 13.8 21.6ZM13.8 7.2C10.14 7.2 7.2 10.14 7.2 13.8C7.2 17.46 10.14 20.4 13.8 20.4C17.46 20.4 20.4 17.46 20.4 13.8C20.4 10.14 17.46 7.2 13.8 7.2Z" fill="#C3CBDC"/>
<path d="M19.6101 18.7617L24.9981 24.1497L24.1497 24.9981L18.7617 19.6101L19.6101 18.7617Z" fill="#C3CBDC"/>
</g>
</svg>
