<svg width="37" height="37" viewBox="0 0 37 37" fill="none" xmlns="http://www.w3.org/2000/svg">
<path d="M33.2323 9.57912C33.0306 9.29937 32.7252 9.10625 32.3799 9.04031C32.0347 8.97437 31.6766 9.04072 31.3807 9.22544C31.0848 9.41016 30.8742 9.6989 30.793 10.031C30.7119 10.3632 30.7665 10.7129 30.9454 11.0069C31.3972 11.6855 31.7902 12.3994 32.1203 13.1412C32.2638 13.462 32.5327 13.7144 32.868 13.8428C33.2033 13.9712 33.5774 13.9652 33.9081 13.826C34.2388 13.6868 34.499 13.4258 34.6313 13.1005C34.7637 12.7753 34.7575 12.4123 34.614 12.0915C34.2257 11.2184 33.7636 10.3781 33.2323 9.57912ZM30.8675 5.62159C30.9232 5.76827 30.9565 5.92207 30.9664 6.07812C31.0234 6.42817 30.948 6.78641 30.7541 7.08675C30.5602 7.3871 30.2609 7.60928 29.9113 7.71231L25.8741 8.91614C25.4906 9.02874 25.0766 8.9889 24.7234 8.8054C24.3701 8.6219 24.1064 8.30977 23.9904 7.93766C23.8743 7.56556 23.9154 7.16397 24.1045 6.82123C24.2936 6.4785 24.6154 6.2227 24.9989 6.1101L25.3826 5.9967C24.4133 5.48383 23.3892 5.07528 22.3284 4.77832C20.2188 4.18554 18.0026 4.03926 15.8296 4.34938C13.6567 4.65949 11.5778 5.41877 9.73353 6.57585C7.88925 7.73292 6.32265 9.2608 5.1397 11.0561C3.95675 12.8514 3.18505 14.8723 2.87681 16.982C2.56858 19.0917 2.73099 21.241 3.35307 23.2846C3.97514 25.3281 5.04237 27.2182 6.48254 28.8269C7.92272 30.4357 9.70225 31.7256 11.7007 32.6093C13.6992 33.4931 15.8701 33.9501 18.0664 33.9495C18.474 33.9495 18.8456 33.9495 19.2653 33.9117C19.8417 33.8725 20.4152 33.7997 20.9827 33.6936C21.1615 33.6523 21.3472 33.6466 21.5284 33.6768C21.7096 33.707 21.8826 33.7726 22.037 33.8695C22.1914 33.9664 22.3239 34.0926 22.4266 34.2406C22.5293 34.3886 22.6 34.5552 22.6344 34.7304C22.6689 34.9057 22.6664 35.0858 22.6271 35.2601C22.5878 35.4344 22.5125 35.5991 22.4057 35.7443C22.2989 35.8896 22.163 36.0123 22.0059 36.1051C21.8489 36.198 21.6742 36.259 21.4922 36.2845C20.8204 36.4076 20.1419 36.493 19.4601 36.5403C19.0045 36.5723 18.5309 36.5869 18.0724 36.5869C15.3109 36.5899 12.5856 35.9782 10.1061 34.799C7.62659 33.6197 5.45898 31.9043 3.77006 29.7847C2.08114 27.6652 0.91594 25.198 0.364115 22.573C-0.187709 19.948 -0.111447 17.2351 0.587034 14.6432C1.28551 12.0512 2.58759 9.6493 4.39308 7.62221C6.19857 5.59511 8.45933 3.99689 11.0014 2.95051C13.5435 1.90413 16.2991 1.43749 19.0563 1.5865C21.8134 1.73551 24.4986 2.4962 26.9051 3.81002L26.5275 2.85045C26.4476 2.66828 26.4063 2.47233 26.4063 2.27434C26.4063 2.07635 26.4474 1.88039 26.5273 1.69819C26.6072 1.516 26.7241 1.35132 26.8712 1.21401C27.0182 1.07671 27.1923 0.96961 27.383 0.899126C27.5737 0.828642 27.7771 0.796225 27.981 0.803816C28.185 0.811408 28.3852 0.858851 28.5698 0.943305C28.7544 1.02776 28.9195 1.14749 29.0552 1.29532C29.191 1.44315 29.2946 1.61604 29.3599 1.80363L30.8585 5.62741L30.8675 5.62159ZM25.6583 32.0449C25.3443 32.2165 25.1134 32.502 25.0165 32.8388C24.9195 33.1755 24.9644 33.5358 25.1413 33.8404C25.3182 34.1451 25.6125 34.3691 25.9596 34.4631C26.3067 34.5572 26.6781 34.5136 26.9921 34.342C27.8502 33.8794 28.6646 33.3442 29.4258 32.7427C29.5723 32.6364 29.6952 32.5026 29.7871 32.3491C29.8791 32.1957 29.9382 32.0259 29.9609 31.8498C29.9837 31.6737 29.9696 31.495 29.9195 31.3243C29.8694 31.1536 29.7844 30.9944 29.6695 30.8563C29.5546 30.7182 29.4121 30.604 29.2507 30.5206C29.0893 30.4371 28.9121 30.3861 28.7299 30.3705C28.5477 30.355 28.3641 30.3753 28.1901 30.4301C28.0162 30.485 27.8554 30.5733 27.7174 30.6898C27.0737 31.1997 26.3846 31.6531 25.6583 32.0449ZM31.0143 27.1016C30.9199 27.2484 30.8561 27.4119 30.8268 27.5826C30.7974 27.7533 30.803 27.928 30.8432 28.0966C30.8834 28.2652 30.9575 28.4245 31.0612 28.5653C31.1648 28.7062 31.2961 28.8259 31.4474 28.9175C31.5988 29.0092 31.7672 29.071 31.9432 29.0995C32.1192 29.128 32.2992 29.1225 32.473 29.0835C32.6468 29.0445 32.811 28.9727 32.9562 28.8721C33.1014 28.7715 33.2247 28.6442 33.3192 28.4973C33.8387 27.6915 34.2907 26.8465 34.6709 25.9705C34.7486 25.8093 34.7918 25.6345 34.7981 25.4567C34.8044 25.2788 34.7735 25.1016 34.7074 24.9356C34.6413 24.7697 34.5413 24.6184 34.4134 24.4908C34.2855 24.3633 34.1323 24.2622 33.9631 24.1935C33.7939 24.1249 33.6122 24.0901 33.4288 24.0914C33.2454 24.0926 33.0641 24.1298 32.8959 24.2007C32.7277 24.2716 32.576 24.3748 32.4499 24.504C32.3238 24.6333 32.226 24.7859 32.1623 24.9527C31.8397 25.6978 31.4558 26.4164 31.0143 27.1016ZM33.3432 20.2566C33.3457 20.5866 33.4758 20.9036 33.7077 21.1449C33.9397 21.3863 34.2565 21.5344 34.5956 21.56C34.9347 21.5856 35.2713 21.4867 35.5389 21.2831C35.8065 21.0794 35.9855 20.7858 36.0406 20.4602C36.1186 19.5127 36.1186 18.5608 36.0406 17.6134C36.0442 17.4286 36.0077 17.2452 35.9336 17.075C35.8594 16.9048 35.7493 16.7516 35.6102 16.6252C35.4712 16.4989 35.3064 16.4024 35.1264 16.3417C34.9465 16.2811 34.7554 16.2578 34.5656 16.2734C34.3758 16.2889 34.1915 16.343 34.0246 16.432C33.8577 16.521 33.7119 16.6431 33.5967 16.7902C33.4814 16.9373 33.3993 17.1063 33.3557 17.2862C33.312 17.4661 33.3077 17.6528 33.3432 17.8344C33.4091 18.6405 33.4091 19.4505 33.3432 20.2566Z" fill="white"/>
<path fill-rule="evenodd" clip-rule="evenodd" d="M11.9823 21.6567C12.6282 21.8988 13.5852 21.3556 15.0515 19.5331C15.6068 19.7449 16.042 20.2145 16.2318 21.2216C16.5917 23.1393 16.0197 24.3668 15.2245 26.0539C15.0766 26.3666 14.9287 26.6763 14.785 26.9875H26.126L26.0911 26.9587C26.8654 21.3052 21.6295 18.5289 25.4549 20.2736C23.8115 16.1646 18.7458 14.8276 22.3201 15.254C20.4813 13.5179 18.1626 12.5584 14.866 13.1649C14.1656 12.1089 12.4901 9.85696 13.0035 12.5541L12.1636 11.7804L12.1176 14.5019C11.1187 15.2886 10.5732 17.9093 9.8003 19.6137C9.13901 20.2909 8.8851 21.1006 9.09576 22.3598C10.1254 23.73 11.7507 23.39 11.9823 21.6567Z" fill="white"/>
</svg>
