<svg width="37" height="34" viewBox="0 0 37 34" fill="none" xmlns="http://www.w3.org/2000/svg">
<path fill-rule="evenodd" clip-rule="evenodd" d="M18.3941 1.5C22.9566 1.5 26.7887 4.29671 28.2311 8.15906H29.8195C28.3189 3.43458 23.7713 0 18.3941 0C13.0169 0 8.46925 3.43458 6.96868 8.15906H8.55709C9.99949 4.29671 13.8316 1.5 18.3941 1.5ZM0 11.1787C0 10.0741 0.895431 9.17871 2 9.17871H34.0691C35.1737 9.17871 36.0691 10.0741 36.0691 11.1787V11.2577C36.0691 12.0506 35.6078 12.7357 34.9388 13.0592L32.3047 26.8365C31.9443 28.7219 30.2954 30.0854 28.3759 30.0854H7.69568C5.77619 30.0854 4.12731 28.7219 3.76685 26.8365L1.13298 13.0605C0.462608 12.7375 0 12.0516 0 11.2577V11.1787ZM11.8087 29.353C11.8087 29.0568 12.0488 28.8167 12.345 28.8167H24.1439C24.4401 28.8167 24.6802 29.0568 24.6802 29.353C24.6802 29.6492 24.4401 29.8893 24.1439 29.8893H12.345C12.0488 29.8893 11.8087 29.6492 11.8087 29.353ZM11.2734 32.0356C10.9772 32.0356 10.7371 32.2757 10.7371 32.5719C10.7371 32.8681 10.9772 33.1082 11.2734 33.1082H25.2174C25.5136 33.1082 25.7538 32.8681 25.7538 32.5719C25.7538 32.2757 25.5136 32.0356 25.2174 32.0356H11.2734Z" fill="#C3CBDC"/>
</svg>
