<svg width="38" height="26" viewBox="0 0 38 26" fill="none" xmlns="http://www.w3.org/2000/svg">
<path fill-rule="evenodd" clip-rule="evenodd" d="M14.2432 14.4369C14.7329 14.6157 15.4585 14.2144 16.5702 12.8681C16.9911 13.0245 17.3211 13.3715 17.465 14.1154C17.7379 15.532 17.3042 16.4388 16.7013 17.6851C16.5892 17.916 16.4771 18.1449 16.3681 18.3748H24.9662L24.9398 18.3535C25.5268 14.1772 21.5572 12.1263 24.4575 13.4151C23.2115 10.3798 19.371 9.3921 22.0808 9.70713C20.6868 8.42466 18.9289 7.71584 16.4295 8.16391C15.8985 7.38378 14.6282 5.72028 15.0175 7.71264L14.3807 7.14112L14.3458 9.15157C13.5885 9.73268 13.1749 11.6686 12.589 12.9277C12.0876 13.4279 11.8951 14.026 12.0548 14.9562C12.8354 15.9684 14.0676 15.7172 14.2432 14.4369Z" fill="#C3CBDC"/>
<path fill-rule="evenodd" clip-rule="evenodd" d="M0.323996 11.5499C1.30745 10.1251 2.37374 8.78461 3.51497 7.53828C7.95821 2.71546 13.0106 0.138132 18.2423 0.00539396C23.474 -0.127344 28.783 2.1882 33.8106 7.129C35.1896 8.49214 36.4854 9.97075 37.688 11.5536C37.8749 11.8046 37.9844 12.124 37.9985 12.4592C38.0125 12.7944 37.9303 13.1253 37.7653 13.3972C36.4274 15.6714 34.8264 17.7085 33.0098 19.4478C29.2153 23.1045 24.4907 25.1134 19.6121 25.1445C14.6983 25.1292 9.9121 23.2775 5.92675 19.8497C3.79476 18.0439 1.88857 15.8863 0.265248 13.4414C0.0838602 13.1698 -0.00994184 12.8297 0.000835297 12.4827C0.0116124 12.1357 0.126256 11.8048 0.323996 11.5499ZM5.15683 9.70633C4.33202 10.6 3.54858 11.5466 2.80999 12.5418C4.14168 14.3998 5.65992 16.0554 7.33053 17.4715C10.9034 20.5498 15.1949 22.217 19.6028 22.239C23.9281 22.2073 28.1159 20.4234 31.4793 17.1802C32.8658 15.8536 34.1118 14.3307 35.1897 12.645C34.2651 11.4883 33.2843 10.3975 32.2523 9.37817C27.6915 4.89458 22.9051 2.80027 18.2763 2.91457C13.6475 3.02887 9.16101 5.34441 5.15683 9.69158V9.70633Z" fill="#C3CBDC"/>
</svg>
