<svg width="37" height="36" viewBox="0 0 37 36" fill="none" xmlns="http://www.w3.org/2000/svg">
<path d="M14.5266 0C18.538 0 22.1691 1.57236 24.7979 4.11466C27.4267 6.65696 29.0526 10.1689 29.0526 14.0483C29.0526 17.7725 27.5542 21.1574 25.1091 23.6715C25.1536 23.7032 25.1966 23.7384 25.2372 23.7773L35.6949 33.877C36.1329 34.2983 36.1353 34.9839 35.6991 35.4078C35.2635 35.8317 34.5546 35.8335 34.1165 35.4122L23.6588 25.3125C23.5924 25.2485 23.5361 25.1787 23.4895 25.1046C21.0204 26.979 17.9085 28.097 14.5263 28.097C10.5149 28.097 6.88313 26.5246 4.25434 23.9823C1.62586 21.44 0 17.9278 0 14.0483C0 10.1689 1.62586 6.65696 4.25464 4.11466C6.88343 1.57265 10.5152 0 14.5266 0ZM23.1739 5.68557C20.9609 3.54538 17.9037 2.2216 14.5266 2.2216C11.1495 2.2216 8.092 3.54538 5.879 5.68557C3.66599 7.82576 2.29718 10.7824 2.29718 14.0483C2.29718 17.3143 3.66599 20.2712 5.879 22.4114C8.0917 24.5516 11.1492 25.8754 14.5266 25.8754C17.9037 25.8754 20.9609 24.5516 23.1739 22.4114C25.3869 20.2715 26.7557 17.3146 26.7557 14.0483C26.7557 10.7824 25.3869 7.82576 23.1739 5.68557Z" fill="#C3CBDC"/>
<path fill-rule="evenodd" clip-rule="evenodd" d="M8.40123 7.79688H12.9666V12.2007H8.40123V7.79688ZM19.7885 18.8435H20.9526V19.9531H19.7885V18.8435ZM17.5514 18.8415H18.7155V19.8986H17.5514H17.5504H16.3873V17.7369H17.5146V16.6411H18.6613V14.4566H19.8254V15.5305H20.9342V16.6401H19.8254V17.7497H18.6787H18.6613H17.5514V18.8415ZM14.0949 16.6233H15.2222V15.5137H14.1317V14.4041H15.2222V13.2944H14.1133V14.4041H12.9482V13.2944H14.0939V9.99927H15.258V13.2934H16.3852V14.4031H17.4941V13.2934H18.6582V14.4031H17.5514V15.5127H16.3873V17.6972H15.259V19.8996H14.0949V16.6233ZM19.7691 13.2934H20.9332V14.4031H19.7691V13.2934ZM10.6752 13.2934H11.8393V14.4031H10.6752V13.2934ZM8.40123 13.2934H9.56533V14.4031H8.40123V13.2934ZM14.0949 7.79688H15.259V8.90649H14.0949V7.79688ZM8.38281 15.5305H12.9482V19.9343H8.38281V15.5305ZM9.49168 16.6005H11.8393V18.8653H9.49168V16.6005ZM16.3678 7.79688H20.9332V12.2007H16.3678V7.79688ZM17.4777 8.86686H19.8254V11.1317H17.4777V8.86686ZM9.51009 8.86686H11.8577V11.1317H9.51009V8.86686Z" fill="#C3CBDC"/>
</svg>
