<svg width="40" height="40" viewBox="0 0 40 40" fill="none" xmlns="http://www.w3.org/2000/svg">
<path d="M15.6546 39.526L24.6193 24L31.6823 36.234C28.282 38.6886 24.1935 40.0066 20 40C18.5082 40 17.0544 39.836 15.6546 39.526ZM11.7812 38.24C9.21197 37.0782 6.91659 35.3876 5.04488 33.2785C3.17317 31.1695 1.76721 28.6893 0.918768 26H18.8462L11.7812 38.238V38.24ZM0.102887 22C-0.183283 19.1945 0.129163 16.3602 1.01957 13.6845C1.90998 11.0087 3.35807 8.55245 5.26814 6.47801L14.2248 22H0.102887ZM8.31969 3.76602C11.7194 1.31178 15.8072 -0.00619755 20 2.1911e-05C21.4918 2.1911e-05 22.9456 0.164022 24.3454 0.474021L15.3807 16L8.31969 3.76602ZM28.2188 1.76002C30.788 2.92179 33.0834 4.61238 34.9551 6.72146C36.8268 8.83054 38.2328 11.3107 39.0812 14H21.1538L28.2188 1.76202V1.76002ZM39.8971 18C40.1833 20.8055 39.8708 23.6398 38.9804 26.3155C38.09 28.9913 36.6419 31.4475 34.7319 33.522L25.7752 18H39.9011H39.8971Z" fill="#F1F2F3"/>
</svg>
