<svg width="46" height="57" viewBox="0 0 46 57" fill="none" xmlns="http://www.w3.org/2000/svg">
<path d="M32.9182 27.7676H26.8789V30.4547H32.9182V27.7676Z" fill="#A8A8A8"/>
<path d="M18.3557 23.7695H12.3164V26.4566H18.3557V23.7695Z" fill="#A8A8A8"/>
<path d="M32.9182 23.7695H26.8789V26.4566H32.9182V23.7695Z" fill="#A8A8A8"/>
<path d="M32.9182 15.7734H26.8789V18.4605H32.9182V15.7734Z" fill="#A8A8A8"/>
<path d="M32.9182 19.7715H26.8789V22.4586H32.9182V19.7715Z" fill="#A8A8A8"/>
<path d="M18.3557 27.7676H12.3164V30.4547H18.3557V27.7676Z" fill="#A8A8A8"/>
<path d="M14.1968 22.1529V22.1528L15.3068 20.354L16.4285 22.1528H18.2271L16.2671 19.3308L18.0895 16.3984H16.3144L15.3147 18.1776L14.2756 16.3984H12.5516L14.3464 19.2088L12.4375 22.1529H14.1968Z" fill="#A8A8A8"/>
<path d="M30.1269 44.6988C30.0661 44.9263 29.9961 45.2389 29.9166 45.6368C29.8368 46.0348 29.7838 46.3664 29.7573 46.6319C29.7346 46.2641 29.6056 45.6124 29.3707 44.6761L28.2393 40.4629H25.7148L28.4268 48.7751H31.0708L33.794 40.4629H31.2812L30.1269 44.6988Z" fill="#A8A8A8"/>
<path d="M25.6761 19.7715H19.6367V22.4586H25.6761V19.7715Z" fill="#A8A8A8"/>
<path d="M25.6761 15.7734H19.6367V18.4605H25.6761V15.7734Z" fill="#A8A8A8"/>
<path d="M44.8398 9.44477L35.7888 0.393569C35.537 0.14152 35.1953 0 34.8389 0H1.34355C0.60155 0 0 0.60155 0 1.34355V55.6565C0 56.3985 0.60155 57 1.34355 57H43.8899C44.6319 57 45.2334 56.3985 45.2334 55.6565V10.3946C45.2334 10.0383 45.0919 9.69664 44.8398 9.44477ZM36.1824 4.58704L40.6462 9.05102H36.1824V4.58704ZM2.68709 2.68709H33.4953V4.5256H2.68709V2.68709ZM2.68709 54.3129V7.21269H33.4953V10.3947C33.4953 11.1369 34.0969 11.7383 34.8389 11.7383H42.5461V54.3129H2.68709Z" fill="#A8A8A8"/>
<path d="M25.6761 23.7695H19.6367V26.4566H25.6761V23.7695Z" fill="#A8A8A8"/>
<path d="M16.0395 42.1841C16.3922 42.1841 16.7218 42.2333 17.0289 42.332C17.3357 42.4306 17.643 42.5518 17.9498 42.6959L18.6379 40.9276C17.8192 40.5371 16.9608 40.3418 16.0622 40.3418C15.2398 40.3418 14.5243 40.5174 13.9162 40.8679C13.3078 41.2185 12.8415 41.7197 12.5174 42.3718C12.1932 43.0239 12.0312 43.7798 12.0312 44.6402C12.0312 46.0164 12.3657 47.0681 13.0348 47.7958C13.7037 48.5236 14.6657 48.8875 15.9202 48.8875C16.7958 48.8875 17.5804 48.7339 18.2741 48.4271V46.5278C17.9253 46.672 17.5785 46.7951 17.2336 46.8974C16.8886 46.9997 16.5323 47.0509 16.1647 47.0509C14.9478 47.0509 14.3396 46.2512 14.3396 44.6517C14.3396 43.8823 14.4894 43.2786 14.7887 42.8408C15.0883 42.4032 15.5053 42.1841 16.0395 42.1841Z" fill="#A8A8A8"/>
<path d="M23.4195 43.8158C22.6727 43.4748 22.215 43.2397 22.0464 43.1108C21.8776 42.982 21.7934 42.8361 21.7934 42.6731C21.7931 42.5214 21.8594 42.3944 21.9923 42.2921C22.1249 42.1898 22.3371 42.1386 22.6291 42.1386C23.1938 42.1386 23.8647 42.3168 24.6416 42.6731L25.3297 40.9389C24.435 40.5408 23.5576 40.3418 22.6974 40.3418C21.723 40.3418 20.9574 40.556 20.4005 40.9844C19.8432 41.4129 19.5646 42.0098 19.5646 42.7752C19.5646 43.1846 19.63 43.5391 19.7608 43.8386C19.8915 44.1381 20.0923 44.4032 20.3634 44.6345C20.6344 44.8658 21.0409 45.1046 21.5831 45.3509C22.182 45.6201 22.5505 45.7982 22.689 45.8853C22.8271 45.9723 22.9278 46.0587 22.9903 46.1439C23.053 46.2292 23.0841 46.3286 23.0841 46.4424C23.0841 46.6244 23.0062 46.7733 22.8509 46.8886C22.6954 47.0045 22.4509 47.0622 22.1173 47.0622C21.7307 47.0622 21.3064 47.0006 20.8438 46.8773C20.3815 46.7543 19.9361 46.5827 19.5078 46.3629V48.3642C19.9134 48.5575 20.3037 48.6931 20.679 48.7708C21.0543 48.8486 21.5186 48.8873 22.0718 48.8873C22.7352 48.8873 23.3133 48.7764 23.8061 48.5548C24.2987 48.333 24.676 48.0222 24.9373 47.6224C25.1991 47.2225 25.3298 46.7648 25.3298 46.2493C25.3298 45.6884 25.1906 45.223 24.9119 44.8534C24.6333 44.4839 24.1359 44.1381 23.4195 43.8158Z" fill="#A8A8A8"/>
<path d="M25.6761 27.7676H19.6367V30.4547H25.6761V27.7676Z" fill="#A8A8A8"/>
</svg>
